<svg xmlns="http://www.w3.org/2000/svg" version="1.0" viewBox="0 0 256 256"><defs><linearGradient id="h" x1="171.43" x2="199.41" y1="203.86" y2="177.52" gradientTransform="translate(2.143 .714)" gradientUnits="userSpaceOnUse"><stop offset="0" style="stop-color:#1c3e47"/><stop offset=".428" style="stop-color:#88aeb9"/><stop offset=".585" style="stop-color:#b9d0d6"/><stop offset=".745" style="stop-color:#88aeb9"/><stop offset="1" style="stop-color:#2d5059"/></linearGradient><linearGradient id="a" x1="132.33" x2="149.56" y1="151.45" y2="135.29" gradientTransform="translate(2.143 .714)" gradientUnits="userSpaceOnUse"><stop offset="0" style="stop-color:#999"/><stop offset=".555" style="stop-color:#f2f2f2"/><stop offset="1" style="stop-color:#b3b3b3"/></linearGradient><linearGradient id="f" x1="38.214" x2="62.749" y1="132.79" y2="110.64" gradientTransform="translate(2.143 .714)" gradientUnits="userSpaceOnUse"><stop offset="0" style="stop-color:#fff"/><stop offset="1" style="stop-color:#fff;stop-opacity:0"/></linearGradient><linearGradient id="e" x1="217.86" x2="125.64" y1="37.357" y2="97.025" gradientTransform="translate(-82.69 -1.326)" gradientUnits="userSpaceOnUse"><stop offset="0" style="stop-color:#fff"/><stop offset="1" style="stop-color:#fff;stop-opacity:0"/></linearGradient><radialGradient id="d" cx="168.98" cy="84.004" r="63.571" gradientTransform="matrix(3.5098 -.30766 .30795 3.5131 -437.61 -122.81)" gradientUnits="userSpaceOnUse"><stop offset="0" style="stop-color:#dcdcf7;stop-opacity:.4"/><stop offset="1" style="stop-color:#dcdcf7"/></radialGradient><radialGradient id="c" cx="123.17" cy="7.966" r="77.5" gradientTransform="matrix(-1.5376 -2.6632 2.6658 -1.5391 315.77 494.99)" gradientUnits="userSpaceOnUse"><stop offset="0" style="stop-color:#000"/><stop offset="1" style="stop-color:#fff"/></radialGradient><filter id="b"><feGaussianBlur stdDeviation=".775"/></filter><filter id="g"><feGaussianBlur stdDeviation="1.449"/></filter></defs><path d="m130.94 149.64 5.05 5.3 14.65-13.64-5.06-5.3-14.64 13.64z" style="fill-rule:evenodd;fill:url(#a)"/><path d="M84.81 9.83c-41.857 1.062-75.5 35.388-75.5 77.5 0 42.78 34.72 77.5 77.5 77.5s77.5-34.72 77.5-77.5-34.72-77.5-77.5-77.5c-.668 0-1.335-.017-2 0zm2 7.5c38.64 0 70 31.36 70 70s-31.36 70-70 70-70-31.36-70-70 31.36-70 70-70z" style="filter:url(#b);fill:#000"/><path d="M84.81 9.83c-41.857 1.062-75.5 35.388-75.5 77.5 0 42.78 34.72 77.5 77.5 77.5s77.5-34.72 77.5-77.5-34.72-77.5-77.5-77.5c-.668 0-1.335-.017-2 0zm2 7.5c38.64 0 70 31.36 70 70s-31.36 70-70 70-70-31.36-70-70 31.36-70 70-70z" style="fill:url(#c)"/><path d="M213.57 84.571a63.571 63.571 0 1 1-127.14 0 63.571 63.571 0 1 1 127.14 0z" style="fill:url(#d)" transform="matrix(1.0347 .37678 -.37678 1.0347 -36.523 -56.703)"/><path d="M108.76 23.555c-23.715-8.636-63.731-4.161-74.588 27.128 11.751.698 28.368 12.213 40.276 16.549 37.772 13.756 66.882 17.84 74.682 49.678.51-1.19 1-2.39 1.45-3.63 13.22-36.306-5.51-76.504-41.82-89.725z" style="fill:url(#e)"/><path d="M22.56 89.267c.479 15.443 6.552 30.213 16.907 41.533l6.937-7.44c-10.202-9.11-18.673-20.31-23.844-34.093zm25.125 35.223-7 7.62a64.031 64.031 0 0 0 24.125 15.63 63.906 63.906 0 0 0 31.313 3.18c-16.634-5.68-34.139-14.08-48.438-26.43z" style="opacity:.7;fill:url(#f)"/><path d="M84.941 14.88c-39.13.993-70.58 33.082-70.58 72.45 0 39.99 32.457 72.45 72.45 72.45 39.989 0 72.449-32.46 72.449-72.45 0-39.992-32.46-72.45-72.449-72.45-.625 0-1.249-.016-1.87 0zm1.87 7.011c36.119 0 65.439 29.317 65.439 65.439 0 36.12-29.32 65.44-65.439 65.44-36.122 0-65.439-29.32-65.439-65.44 0-36.122 29.317-65.439 65.439-65.439z" style="opacity:.2;filter:url(#g);fill:#000"/><path d="m132.56 157.55 79.46 87.94c8.33-3.28 19.86-15.02 23.9-22.6l-81.63-86.18-21.73 20.84z" style="stroke-linejoin:bevel;fill-rule:evenodd;stroke:#000;stroke-width:1px;fill:url(#h)"/></svg>